<?xml version="1.0" encoding="UTF-8" standalone="no"?>
<!-- Created with Inkscape (http://www.inkscape.org/) -->

<svg
   width="115.71068mm"
   height="26.811052mm"
   viewBox="0 0 115.71068 26.811052"
   version="1.1"
   id="svg5"
   xmlns:inkscape="http://www.inkscape.org/namespaces/inkscape"
   xmlns:sodipodi="http://sodipodi.sourceforge.net/DTD/sodipodi-0.dtd"
   xmlns="http://www.w3.org/2000/svg"
   xmlns:svg="http://www.w3.org/2000/svg">
  <sodipodi:namedview
     id="namedview7"
     pagecolor="#ffffff"
     bordercolor="#000000"
     borderopacity="0.25"
     inkscape:showpageshadow="2"
     inkscape:pageopacity="0.0"
     inkscape:pagecheckerboard="0"
     inkscape:deskcolor="#d1d1d1"
     inkscape:document-units="mm"
     showgrid="false" />
  <defs
     id="defs2" />
  <g
     inkscape:label="Layer 1"
     inkscape:groupmode="layer"
     id="layer1"
     transform="translate(-52.373754,-9.5700614)">
    <g
       aria-label="eBooks"
       id="text3113"
       style="font-size:35.2777px;font-family:'Abril Fatface';-inkscape-font-specification:'Abril Fatface';opacity:0.989624;fill:#dd2429;stroke-width:0.264583">
      <path
         d="m 61.475401,36.381113 q -4.550823,0 -6.843874,-2.328329 -2.257772,-2.363605 -2.257772,-6.526374 0,-4.198046 2.539994,-6.420541 2.575272,-2.222495 6.526374,-2.222495 8.008038,0 7.690539,8.043315 h -9.948311 v 1.375831 q 0,3.457214 0.881942,5.221099 0.881942,1.763885 3.06916,1.763885 4.092213,0 5.36221,-4.374435 l 0.634999,0.105833 q -0.670277,2.539995 -2.434162,3.951103 -1.728607,1.411108 -5.221099,1.411108 z M 59.217628,26.221135 h 3.633603 v -1.728607 q 0,-2.857493 -0.352777,-3.880547 -0.317499,-1.058331 -1.340552,-1.058331 -0.987776,0 -1.481664,1.128887 -0.45861,1.093608 -0.45861,3.809991 z"
         id="path3165" />
      <path
         d="m 70.788672,11.333947 h 10.548032 q 4.9036,0 7.337761,1.340552 2.469439,1.305275 2.469439,4.44499 0,4.833045 -5.82082,5.785543 v 0.07056 q 7.055539,0.881943 7.055539,6.13832 0,3.845269 -2.892771,5.397488 -2.892771,1.516941 -8.325537,1.516941 H 70.788672 v -0.670277 h 2.29305 V 12.004223 h -2.29305 z m 9.172201,12.206083 v 11.818029 h 1.658052 q 1.940274,0 2.716383,-1.340552 0.776109,-1.340553 0.776109,-3.951102 v -1.869718 q 0,-2.328329 -0.952497,-3.492493 -0.952498,-1.164164 -3.38666,-1.164164 z m 0,-11.535807 v 10.865531 h 0.917221 q 1.83444,0 2.539994,-1.093609 0.740832,-1.128886 0.740832,-3.421936 v -1.658052 q 0,-2.61055 -0.634999,-3.633603 -0.634999,-1.058331 -2.434161,-1.058331 z"
         id="path3167" />
      <path
         d="m 105.04327,29.078629 v -2.998604 q 0,-3.421937 -0.38806,-4.974156 -0.35278,-1.587496 -1.69333,-1.587496 -0.77611,0 -1.27,0.45861 -0.45861,0.423332 -0.67027,1.446385 -0.3175,1.587497 -0.3175,4.833045 v 2.751661 q 0,3.845269 0.21166,4.621378 0.24695,0.776109 0.49389,1.269997 0.38806,0.846665 1.51694,0.846665 1.37583,0 1.79917,-1.587496 0.3175,-1.128887 0.3175,-5.079989 z m -2.18722,7.302484 q -4.409714,0 -6.667487,-2.257773 -2.257773,-2.257773 -2.257773,-6.455819 0,-4.233324 2.398884,-6.491097 2.434161,-2.29305 6.808596,-2.29305 4.37443,0 6.52637,2.116662 2.15194,2.081384 2.15194,6.385263 0,8.995814 -8.96053,8.995814 z"
         id="path3169" />
      <path
         d="m 124.19903,29.078629 v -2.998604 q 0,-3.421937 -0.38806,-4.974156 -0.35277,-1.587496 -1.69333,-1.587496 -0.77611,0 -1.26999,0.45861 -0.45861,0.423332 -0.67028,1.446385 -0.3175,1.587497 -0.3175,4.833045 v 2.751661 q 0,3.845269 0.21167,4.621378 0.24694,0.776109 0.49388,1.269997 0.38806,0.846665 1.51695,0.846665 1.37583,0 1.79916,-1.587496 0.3175,-1.128887 0.3175,-5.079989 z m -2.18722,7.302484 q -4.40971,0 -6.66749,-2.257773 -2.25777,-2.257773 -2.25777,-6.455819 0,-4.233324 2.39889,-6.491097 2.43416,-2.29305 6.80859,-2.29305 4.37444,0 6.52638,2.116662 2.15194,2.081384 2.15194,6.385263 0,8.995814 -8.96054,8.995814 z"
         id="path3171" />
      <path
         d="m 143.4959,36.028336 v -0.634999 h 1.62277 l -3.98638,-8.184426 -0.67027,0.176388 v 8.008038 h 1.62277 v 0.634999 h -10.1247 v -0.634999 h 1.94028 V 10.20506 h -2.08139 V 9.5700617 h 8.64304 V 26.679745 l 0.56444,-0.211666 7.93748,-6.596929 h -3.3161 v -0.634999 h 6.94971 v 0.634999 h -2.46944 l -4.19805,3.563047 6.10304,11.95914 h 1.27 v 0.634999 z"
         id="path3173" />
      <path
         d="m 154.64362,36.381113 v -6.314708 h 0.42333 q 0.91722,3.069159 2.46944,4.303879 1.55222,1.234719 3.88055,1.234719 3.59832,0 3.59832,-2.29305 0,-0.987776 -0.88194,-1.481664 -1.37583,-0.776109 -3.52777,-1.199441 -2.39888,-0.634999 -4.02166,-1.69333 -1.94027,-1.269997 -1.94027,-4.021657 0,-2.751661 1.69333,-4.374435 1.69333,-1.658052 4.51554,-1.658052 1.72861,0 3.56305,0.811387 0.67028,0.282222 1.02305,0.282222 0.35278,0 0.59972,-0.246944 0.24695,-0.246944 0.59973,-0.91722 h 0.38805 v 5.397488 h -0.42333 q -1.79916,-4.586101 -5.57388,-4.586101 -1.65805,0 -2.46944,0.599721 -0.81138,0.564443 -0.81138,1.446385 0,0.529166 0.24694,0.846665 0.24694,0.282222 0.38805,0.423332 0.14111,0.141111 0.45861,0.3175 0.3175,0.141111 0.52917,0.246944 0.21167,0.07055 0.635,0.211666 0.45861,0.141111 0.67027,0.176388 2.39889,0.599721 3.45722,1.058331 1.05833,0.423333 2.01083,1.058331 1.94027,1.340553 1.94027,4.339157 0,2.963327 -1.76388,4.515546 -1.76389,1.516941 -4.83305,1.516941 -2.18722,0 -4.23332,-1.023054 -0.42333,-0.282221 -0.67028,-0.282221 -0.77611,0 -1.51694,1.305275 z"
         id="path3175" />
    </g>
  </g>
</svg>
